# xmcd
# 
# Track frame offsets:
#     150
#     42534
#     63274
#     75591
#     97220
#     116548
#     159682
#     196853
#     224221
#     248099
#     275338
#     300953
# 
# Disc length: 4307
# 
# Revision: 3
# Processed by: cddbd v1.5.2PL0 Copyright (c) Steve Scherf et al.
# Submitted via: fre:ac v1.0.31
# 
DISCID=a810d10c
DTITLE=Jazz - Uncompromising Expression 1958 - 1960
DYEAR=2014
DGENRE=Jazz
TTITLE0=Sonny Clark - Cool Struttin'
TTITLE1=Three Sounds - Tenderly
TTITLE2=Bill Henderson and Jimmy Smith - Ain't No Use
TTITLE3=Sonny Clark Trio - Ain't No Use
TTITLE4=Bennie Green Quintet - Encore
TTITLE5=Art Blakey and The Jazz Messengers - Moanin' (Part 1 and 2)
TTITLE6=Cannonball Adderley - Somethin' Else (Part 1 and 2)
TTITLE7=Dizzy Reece - The Rake
TTITLE8=Jackie McLean - What's New
TTITLE9=Freddie Hubbard - One Mint Julip
TTITLE10=Stanley Turrentine - Little Sheri
TTITLE11=Tina Brooks - True Blue
EXTD=
EXTT0=
EXTT1=
EXTT2=
EXTT3=
EXTT4=
EXTT5=
EXTT6=
EXTT7=
EXTT8=
EXTT9=
EXTT10=
EXTT11=
PLAYORDER=
